<?xml version="1.0" encoding="UTF-8"?>
<svg width="512" height="512" viewBox="0 0 512 512" xmlns="http://www.w3.org/2000/svg">
  <!-- Background -->
  <rect width="512" height="512" rx="100" fill="#4A90E2"/>
  
  <!-- Browser windows -->
  <!-- Chrome window (red) -->
  <rect x="80" y="120" width="140" height="120" rx="10" fill="#EA4335" opacity="0.9"/>
  <circle cx="100" cy="140" r="5" fill="white"/>
  <circle cx="115" cy="140" r="5" fill="white"/>
  <circle cx="130" cy="140" r="5" fill="white"/>
  
  <!-- Firefox window (orange) -->
  <rect x="186" y="180" width="140" height="120" rx="10" fill="#FF9500" opacity="0.9"/>
  <circle cx="206" cy="200" r="5" fill="white"/>
  <circle cx="221" cy="200" r="5" fill="white"/>
  <circle cx="236" cy="200" r="5" fill="white"/>
  
  <!-- Edge window (blue) -->
  <rect x="292" y="120" width="140" height="120" rx="10" fill="#0078D7" opacity="0.9"/>
  <circle cx="312" cy="140" r="5" fill="white"/>
  <circle cx="327" cy="140" r="5" fill="white"/>
  <circle cx="342" cy="140" r="5" fill="white"/>
  
  <!-- Arrow/pointer -->
  <path d="M 256 320 L 220 380 L 240 380 L 240 420 L 272 420 L 272 380 L 292 380 Z" fill="white"/>
  
  <!-- Title -->
  <text x="256" y="470" text-anchor="middle" font-family="Arial, sans-serif" font-size="48" font-weight="bold" fill="white">BS</text>
</svg>
